<svg xmlns="http://www.w3.org/2000/svg" width="500" height="500" viewBox="0 0 500 500">
  <style type="text/css">
    .st0{fill:#FFFFFF;}
  </style>
  <circle cx="250" cy="250" r="250"/>
  <g>
    <path class="st0" d="M338.8,386.3c-9.4,6.5-21.7,11.3-37.1,14.3c-15.3,3-31.1,4.5-47.3,4.5c-19,0-37.3-2.8-54.7-8.5
		c-17.5-5.7-33-14.8-46.4-27.3c-13.5-12.5-24.2-28.5-32.2-48.1c-8-19.6-11.9-43.3-11.9-71.1c0-29,4.5-53.3,13.6-73.1
		c9.1-19.7,20.7-35.6,34.9-47.7c14.2-12.1,30-20.8,47.3-26.2c17.3-5.4,34.4-8.1,51.1-8.1c18.5,0,34,1.1,46.7,3.4
		c12.6,2.3,23.1,5,31.3,8.1l-12.4,52.8c-7.1-3.1-15.4-5.4-24.9-6.8c-9.5-1.4-21.5-2.1-36-2.1c-12.8,0-24.4,2.1-34.7,6.2
		c-10.4,4.1-19.2,10.3-26.6,18.5c-7.4,8.2-13.1,18.6-17.3,31.1c-4.1,12.5-6.2,27.1-6.2,43.9c0,14.8,1.8,28.3,5.5,40.5
		c3.7,12.2,9.2,22.7,16.6,31.5c7.4,8.8,16.8,15.6,28.1,20.4c11.4,4.8,24.6,7.2,39.6,7.2c13.9,0,25.6-1.3,35.1-3.8
		c9.5-2.6,18-5.8,25.3-9.8L338.8,386.3z"/>
  </g>
</svg>
